<svg xmlns="http://www.w3.org/2000/svg" viewBox="0 0 512 512" width="60" height="60" style="margin-bottom: 10px;">
        <path fill="#059669" d="M400,64h-48c0-35.346-28.654-64-64-64h-64C188.654,0,160,28.654,160,64h-48c-35.346,0-64,28.654-64,64v48 c0,70.691,57.309,128,128,128h16c0,53.019,42.421,96.524,96,96v64h-32c-17.673,0-32,14.327-32,32v32h192v-32c0-17.673-14.327-32-32-32 h-32v-64c53.579,0.524,96-42.981,96-96h16c70.691,0,128-57.309,128-128v-48C464,92.654,435.346,64,400,64z M112,176v-48h48v64.63 C132.553,190.13,114.654,184.288,112,176z M400,176c-2.654,8.288-20.553,14.13-48,16.63V128h48V176z"/>
    </svg>